<?xml version="1.0" encoding="utf-8"?>
<!-- Generator: Adobe Illustrator 16.0.0, SVG Export Plug-In . SVG Version: 6.00 Build 0)  -->
<!DOCTYPE svg PUBLIC "-//W3C//DTD SVG 1.1//EN" "http://www.w3.org/Graphics/SVG/1.1/DTD/svg11.dtd">
<svg version="1.1" id="Layer_1" xmlns="http://www.w3.org/2000/svg" xmlns:xlink="http://www.w3.org/1999/xlink" x="0px" y="0px"
	 width="682px" height="182.28px" viewBox="0 0 682 182.28" enable-background="new 0 0 682 182.28" xml:space="preserve">
<rect x="7.987" y="38.283" width="23.82" height="91.879"/>
<circle cx="19.897" cy="17.015" r="14.462"/>
<g>
	<path d="M88.381,39.104c-22.317,0-40.41,10.471-40.41,23.378v67.679h24.671v-22.544v-39.56c0-5.027,7.047-9.105,15.738-9.105
		c8.692,0,15.739,4.078,15.739,9.105v39.56v22.544h24.671V62.482C128.791,49.575,110.698,39.104,88.381,39.104z"/>
</g>
<g>
	<path d="M187.066,39.104c-22.318,0-40.41,10.471-40.41,23.378v67.679h24.671v-22.544v-39.56c0-5.027,7.047-9.105,15.739-9.105
		c8.691,0,15.738,4.078,15.738,9.105v39.56v22.544h24.671V62.482C227.476,49.575,209.383,39.104,187.066,39.104z"/>
</g>
<g>
	<path d="M529.059,130.162c22.318,0,40.41-10.472,40.41-23.378v-67.68h-24.672v22.544v39.559c0,5.028-7.047,9.106-15.738,9.106
		c-8.692,0-15.738-4.078-15.738-9.106V61.648V39.104h-24.671v67.68C488.649,119.69,506.742,130.162,529.059,130.162z"/>
</g>
<rect x="450.791" width="24.247" height="130.162"/>
<path d="M391.24,36.977c-7.352,0-14.286,1.872-20.417,5.17V0h-24.671v84.633c0,26.32,20.187,47.656,45.088,47.656
	c24.902,0,45.089-21.336,45.089-47.656C436.329,54.447,416.143,36.977,391.24,36.977z M391.24,113.118
	c-11.275,0-20.417-12.753-20.417-28.485s9.142-28.484,20.417-28.484s20.418,12.752,20.418,28.484S402.516,113.118,391.24,113.118z"
	/>
<path d="M286.601,36.977c-26.319,0-47.655,21.336-47.655,47.656s21.336,47.656,47.655,47.656c26.32,0,47.656-21.336,47.656-47.656
	S312.92,36.977,286.601,36.977z M286.601,109.744c-11.746,0-21.268-11.243-21.268-25.111c0-13.869,9.522-25.111,21.268-25.111
	c11.746,0,21.269,11.243,21.269,25.111C307.869,98.5,298.347,109.744,286.601,109.744z"/>
<g>
	<path fill="none" d="M630.296,59.521c-6.864,0-12.951,3.854-16.838,9.813h33.676C643.246,63.376,637.159,59.521,630.296,59.521z"/>
	<path d="M677.88,87.2c0.047-0.85,0.071-1.706,0.071-2.567c0-5.354-0.895-10.495-2.523-15.298
		c-6.375-18.813-24.166-32.357-45.132-32.357c-26.32,0-47.655,21.336-47.655,47.656s21.335,47.656,47.655,47.656h41.686v-22.545
		h-1.187h-40.499c-11.012,0-20.068-9.881-21.159-22.543h42.317H677.88z M613.458,69.334c3.887-5.958,9.974-9.813,16.838-9.813
		c6.863,0,12.95,3.854,16.838,9.813H613.458z"/>
</g>
<g>
	<path d="M29.31,166.425H16.165v12.192h14.65v3.662H11.8v-33.815h18.262v3.663H16.165v10.687H29.31V166.425z"/>
	<path d="M52.534,182.28v-33.815H57.3l10.837,17.108c2.509,3.964,4.465,7.525,6.071,10.987l0.1-0.05
		c-0.401-4.516-0.501-8.63-0.501-13.897v-14.148h4.114v33.815h-4.415l-10.736-17.158c-2.358-3.763-4.616-7.626-6.321-11.289
		l-0.151,0.051c0.251,4.265,0.351,8.328,0.351,13.947v14.449H52.534z"/>
	<path d="M108.016,152.177H97.731v-3.713h25.036v3.713h-10.335v30.103h-4.415V152.177z"/>
	<path d="M142.579,148.917c2.208-0.452,5.368-0.703,8.378-0.703c4.666,0,7.676,0.854,9.783,2.76
		c1.706,1.505,2.659,3.813,2.659,6.422c0,4.465-2.81,7.425-6.372,8.63v0.15c2.609,0.902,4.164,3.311,4.967,6.823
		c1.104,4.716,1.907,7.977,2.609,9.281h-4.515c-0.552-0.953-1.305-3.863-2.258-8.077c-1.003-4.666-2.81-6.422-6.773-6.572h-4.114
		v14.649h-4.365V148.917z M146.943,164.319h4.465c4.666,0,7.626-2.559,7.626-6.422c0-4.365-3.161-6.271-7.776-6.321
		c-2.107,0-3.612,0.2-4.315,0.4V164.319z"/>
	<path d="M203.13,166.425h-13.145v12.192h14.65v3.662H185.62v-33.815h18.262v3.663h-13.897v10.687h13.145V166.425z"/>
	<path d="M226.353,148.866c2.107-0.351,4.867-0.652,8.378-0.652c4.315,0,7.476,1.004,9.482,2.81c1.856,1.605,2.96,4.064,2.96,7.074
		c0,3.061-0.903,5.469-2.609,7.225c-2.308,2.459-6.071,3.713-10.335,3.713c-1.305,0-2.509-0.05-3.512-0.301v13.546h-4.365V148.866z
		 M230.718,165.171c0.953,0.251,2.157,0.352,3.612,0.352c5.268,0,8.479-2.559,8.479-7.225c0-4.466-3.161-6.623-7.977-6.623
		c-1.907,0-3.361,0.15-4.114,0.352V165.171z"/>
	<path d="M269.094,148.917c2.208-0.452,5.368-0.703,8.378-0.703c4.666,0,7.676,0.854,9.784,2.76
		c1.706,1.505,2.659,3.813,2.659,6.422c0,4.465-2.81,7.425-6.372,8.63v0.15c2.609,0.902,4.164,3.311,4.967,6.823
		c1.104,4.716,1.907,7.977,2.609,9.281h-4.515c-0.552-0.953-1.305-3.863-2.258-8.077c-1.003-4.666-2.81-6.422-6.773-6.572h-4.114
		v14.649h-4.365V148.917z M273.458,164.319h4.465c4.666,0,7.626-2.559,7.626-6.422c0-4.365-3.161-6.271-7.776-6.321
		c-2.107,0-3.612,0.2-4.315,0.4V164.319z"/>
	<path d="M329.645,166.425H316.5v12.192h14.65v3.662h-19.015v-33.815h18.262v3.663H316.5v10.687h13.145V166.425z"/>
	<path d="M352.868,182.28v-33.815h4.766l10.837,17.108c2.508,3.964,4.465,7.525,6.07,10.987l0.101-0.05
		c-0.401-4.516-0.502-8.63-0.502-13.897v-14.148h4.114v33.815h-4.415l-10.736-17.158c-2.358-3.763-4.616-7.626-6.322-11.289
		l-0.15,0.051c0.251,4.265,0.352,8.328,0.352,13.947v14.449H352.868z"/>
	<path d="M419.438,166.425h-13.145v12.192h14.65v3.662H401.93v-33.815h18.262v3.663h-13.897v10.687h13.145V166.425z"/>
	<path d="M447.027,148.464v20.019c0,7.575,3.361,10.786,7.877,10.786c5.018,0,8.229-3.311,8.229-10.786v-20.019h4.414v19.718
		c0,10.385-5.468,14.649-12.793,14.649c-6.924,0-12.142-3.963-12.142-14.449v-19.918H447.027z"/>
	<path d="M491.172,148.917c2.207-0.452,5.368-0.703,8.378-0.703c4.666,0,7.677,0.854,9.783,2.76
		c1.706,1.505,2.659,3.813,2.659,6.422c0,4.465-2.81,7.425-6.371,8.63v0.15c2.608,0.902,4.164,3.311,4.967,6.823
		c1.104,4.716,1.906,7.977,2.608,9.281h-4.516c-0.552-0.953-1.304-3.863-2.257-8.077c-1.004-4.666-2.811-6.422-6.773-6.572h-4.114
		v14.649h-4.364V148.917z M495.536,164.319h4.466c4.665,0,7.625-2.559,7.625-6.422c0-4.365-3.16-6.271-7.776-6.321
		c-2.106,0-3.612,0.2-4.314,0.4V164.319z"/>
	<path d="M533.61,176.961c1.957,1.204,4.816,2.208,7.827,2.208c4.465,0,7.073-2.358,7.073-5.77c0-3.161-1.806-4.967-6.371-6.724
		c-5.519-1.956-8.931-4.816-8.931-9.582c0-5.269,4.365-9.182,10.938-9.182c3.462,0,5.97,0.803,7.476,1.655l-1.204,3.563
		c-1.104-0.602-3.361-1.605-6.422-1.605c-4.616,0-6.372,2.76-6.372,5.067c0,3.161,2.057,4.716,6.723,6.522
		c5.72,2.207,8.63,4.967,8.63,9.934c0,5.218-3.863,9.733-11.841,9.733c-3.261,0-6.823-0.953-8.629-2.157L533.61,176.961z"/>
	<path d="M579.36,148.464v14.148h16.355v-14.148h4.415v33.815h-4.415v-15.854H579.36v15.854h-4.364v-33.815H579.36z"/>
	<path d="M628.121,148.464v33.815h-4.365v-33.815H628.121z"/>
	<path d="M651.799,148.866c2.106-0.351,4.866-0.652,8.378-0.652c4.314,0,7.476,1.004,9.482,2.81c1.856,1.605,2.96,4.064,2.96,7.074
		c0,3.061-0.903,5.469-2.608,7.225c-2.309,2.459-6.071,3.713-10.336,3.713c-1.304,0-2.508-0.05-3.512-0.301v13.546h-4.364V148.866z
		 M656.163,165.171c0.953,0.251,2.157,0.352,3.612,0.352c5.268,0,8.479-2.559,8.479-7.225c0-4.466-3.16-6.623-7.977-6.623
		c-1.906,0-3.361,0.15-4.114,0.352V165.171z"/>
</g>
</svg>
