<?xml version="1.0" encoding="utf-8"?>
<!-- Generator: Adobe Illustrator 16.0.0, SVG Export Plug-In . SVG Version: 6.00 Build 0)  -->
<!DOCTYPE svg PUBLIC "-//W3C//DTD SVG 1.1//EN" "http://www.w3.org/Graphics/SVG/1.1/DTD/svg11.dtd">
<svg version="1.1" id="Layer_1" xmlns="http://www.w3.org/2000/svg" xmlns:xlink="http://www.w3.org/1999/xlink" x="0px" y="0px"
	 width="335.061px" height="521.411px" viewBox="0 0 335.061 521.411" enable-background="new 0 0 335.061 521.411"
	 xml:space="preserve">
<circle fill="#4D9DD6" cx="44.712" cy="44.711" r="44.712"/>
<g>
	<path fill="#4D9DD6" d="M169.814,190.919c-29.189,0-56.592,7.598-80.39,20.879v-97.171c-12.908,8.272-28.244,13.088-44.713,13.088
		c-14.564,0-28.244-3.763-40.143-10.35v238.8c0,91.263,73.983,165.246,165.246,165.246c91.263,0,165.246-73.983,165.246-165.246
		S261.077,190.919,169.814,190.919z M169.814,436.556c-44.397,0-80.39-35.993-80.39-80.391s35.993-80.391,80.39-80.391
		c44.398,0,80.391,35.993,80.391,80.391S214.213,436.556,169.814,436.556z"/>
</g>
</svg>
